<svg height="542" width="720" xmlns="http://www.w3.org/2000/svg">
<rect height="542" fill="#555" width="720"></rect>
<text fill="#7f7" font-family="Courier New" font-size="12" xml:space="preserve">
<tspan x="10" y="26">10 megabytes installed</tspan>
<tspan x="10" y="42"></tspan>
<tspan x="10" y="58">node_modules</tspan>
<tspan x="10" y="74">└─┬ agenda@0.9.1 </tspan>
<tspan x="10" y="90">  ├── cron@1.1.1 </tspan>
<tspan x="10" y="106">  ├─┬ date.js@0.3.1 </tspan>
<tspan x="10" y="122">  │ ├── debug@0.7.4 </tspan>
<tspan x="10" y="138">  │ ├── lodash.filter@4.6.0 </tspan>
<tspan x="10" y="154">  │ ├── lodash.findkey@4.6.0 </tspan>
<tspan x="10" y="170">  │ ├── lodash.foreach@4.5.0 </tspan>
<tspan x="10" y="186">  │ ├── lodash.includes@4.3.0 </tspan>
<tspan x="10" y="202">  │ ├── lodash.isempty@4.4.0 </tspan>
<tspan x="10" y="218">  │ ├── lodash.partition@4.6.0 </tspan>
<tspan x="10" y="234">  │ └── lodash.trim@4.5.1 </tspan>
<tspan x="10" y="250">  ├── human-interval@0.1.6 </tspan>
<tspan x="10" y="266">  ├─┬ moment-timezone@0.5.13 </tspan>
<tspan x="10" y="282">  │ └── moment@2.18.1 </tspan>
<tspan x="10" y="298">  └─┬ mongodb@2.2.26 </tspan>
<tspan x="10" y="314">    ├── es6-promise@3.2.1 </tspan>
<tspan x="10" y="330">    ├─┬ mongodb-core@2.1.10 </tspan>
<tspan x="10" y="346">    │ ├── bson@1.0.4 </tspan>
<tspan x="10" y="362">    │ └─┬ require_optional@1.0.0 </tspan>
<tspan x="10" y="378">    │   ├── resolve-from@2.0.0 </tspan>
<tspan x="10" y="394">    │   └── semver@5.3.0 </tspan>
<tspan x="10" y="410">    └─┬ readable-stream@2.2.7 </tspan>
<tspan x="10" y="426">      ├── buffer-shims@1.0.0 </tspan>
<tspan x="10" y="442">      ├── core-util-is@1.0.2 </tspan>
<tspan x="10" y="458">      ├── inherits@2.0.3 </tspan>
<tspan x="10" y="474">      ├── isarray@1.0.0 </tspan>
<tspan x="10" y="490">      ├── process-nextick-args@1.0.7 </tspan>
<tspan x="10" y="506">      ├── string_decoder@1.0.0 </tspan>
<tspan x="10" y="522">      └── util-deprecate@1.0.2</tspan>
</text>
</svg>
